<?xml version="1.0" encoding="UTF-8"?>
<svg width="97px" height="113px" viewBox="0 0 97 113" version="1.1" xmlns="http://www.w3.org/2000/svg" xmlns:xlink="http://www.w3.org/1999/xlink">
    <title>new_arrows</title>
    <g id="Page-1" stroke="none" stroke-width="1" fill="none" fill-rule="evenodd">
        <path d="M68.6761346,12.3860786 C85.3902307,20.0396952 97,36.9140442 97,56.5 C97,79.1138342 81.5231543,98.1128574 60.5839474,103.482585 L61.3355628,110.630545 C61.3828345,111.080306 61.2762811,111.53281 61.0332896,111.914221 C60.469469,112.79922 59.3255028,113.090818 58.4138043,112.608917 L58.2719005,112.526373 L38.0602592,99.6498131 L55.1530403,82.8524005 C55.4755954,82.5354192 55.896058,82.3371133 56.3458182,82.2898416 C57.3944041,82.1796307 58.3387579,82.900747 58.5228611,83.9219572 L58.5439189,84.0698284 L59.2050164,90.3574727 C73.5793268,85.8168845 84,72.3753816 84,56.5 C84,42.1638111 75.5020365,29.8124279 63.2685976,24.2083386 C64.9303783,20.5759524 66.7330849,16.6344415 68.6761346,12.3860786 Z M39.7280995,0.473627065 L59.9397408,13.3501869 L42.8469597,30.1475995 C42.0591338,30.9218115 40.7928519,30.9107753 40.01864,30.1229494 C39.7016587,29.8003944 39.5033528,29.3799318 39.4560811,28.9301716 L38.7654901,22.351248 C23.8921008,26.5829707 13,40.2694922 13,56.5 C13,71.0007402 21.6941629,83.4708498 34.1541191,88.9819592 C32.5399484,92.6359659 30.7886723,96.6011194 28.9010442,100.874994 C11.8776148,93.3470314 0,76.3105985 0,56.5 C0,33.536722 15.9588581,14.300835 37.3906277,9.27828576 L36.6644372,2.36945462 C36.5489783,1.27093607 37.3459055,0.286812858 38.4444241,0.171353905 C38.8941843,0.124082198 39.3466889,0.230635597 39.7280995,0.473627065 Z" id="new_arrows" fill="#008060"></path>
    </g>
</svg>